<?xml version="1.0" encoding="UTF-8" standalone="no"?>
<svg
   xmlns:dc="http://purl.org/dc/elements/1.1/"
   xmlns:cc="http://creativecommons.org/ns#"
   xmlns:rdf="http://www.w3.org/1999/02/22-rdf-syntax-ns#"
   xmlns:svg="http://www.w3.org/2000/svg"
   xmlns="http://www.w3.org/2000/svg"
   xmlns:sodipodi="http://sodipodi.sourceforge.net/DTD/sodipodi-0.dtd"
   xmlns:inkscape="http://www.inkscape.org/namespaces/inkscape"
   sodipodi:docname="tobysoftlogo.svg"
   inkscape:version="1.0 (4035a4fb49, 2020-05-01)"
   id="svg8"
   version="1.1"
   viewBox="0 0 210 297"
   height="297mm"
   width="210mm">
  <defs
     id="defs2" />
  <sodipodi:namedview
     inkscape:window-maximized="1"
     inkscape:window-y="-8"
     inkscape:window-x="-8"
     inkscape:window-height="1057"
     inkscape:window-width="1853"
     showgrid="false"
     inkscape:document-rotation="0"
     inkscape:current-layer="layer1"
     inkscape:document-units="mm"
     inkscape:cy="146.59714"
     inkscape:cx="205.41129"
     inkscape:zoom="0.98994949"
     inkscape:pageshadow="2"
     inkscape:pageopacity="0.0"
     borderopacity="1.0"
     bordercolor="#666666"
     pagecolor="#ffffff"
     id="base" />
  <metadata
     id="metadata5">
    <rdf:RDF>
      <cc:Work
         rdf:about="">
        <dc:format>image/svg+xml</dc:format>
        <dc:type
           rdf:resource="http://purl.org/dc/dcmitype/StillImage" />
        <dc:title></dc:title>
      </cc:Work>
    </rdf:RDF>
  </metadata>
  <g
     id="layer1"
     inkscape:groupmode="layer"
     inkscape:label="Layer 1">
    <rect
       ry="11.759856"
       y="20.599701"
       x="59.961555"
       height="42.52232"
       width="80.782242"
       id="rect841"
       style="fill:#008066;stroke-width:0.243276" />
    <text
       transform="scale(0.79806658,1.2530283)"
       id="text835"
       y="32.274296"
       x="79.07695"
       style="font-style:normal;font-variant:normal;font-weight:normal;font-stretch:normal;font-size:18.1549px;line-height:1.25;font-family:'Cooper Black';-inkscape-font-specification:'Cooper Black, Normal';font-variant-ligatures:normal;font-variant-caps:normal;font-variant-numeric:normal;font-variant-east-asian:normal;fill:#000000;fill-opacity:1;stroke:none;stroke-width:0.453872;"
       xml:space="preserve"><tspan
         style="font-style:normal;font-variant:normal;font-weight:normal;font-stretch:normal;font-size:18.1549px;font-family:'Cooper Black';-inkscape-font-specification:'Cooper Black, Normal';font-variant-ligatures:normal;font-variant-caps:normal;font-variant-numeric:normal;font-variant-east-asian:normal;stroke-width:0.453872;fill:#000000;"
         y="32.274296"
         x="79.07695"
         id="tspan833"
         sodipodi:role="line">TOBY</tspan></text>
    <text
       transform="scale(0.79806658,1.2530283)"
       id="text839"
       y="46.863064"
       x="79.07695"
       style="font-style:normal;font-variant:normal;font-weight:normal;font-stretch:normal;font-size:18.1549px;line-height:1.25;font-family:'Cooper Black';-inkscape-font-specification:'Cooper Black, Normal';font-variant-ligatures:normal;font-variant-caps:normal;font-variant-numeric:normal;font-variant-east-asian:normal;fill:#000000;fill-opacity:1;stroke:none;stroke-width:0.453872;"
       xml:space="preserve"><tspan
         style="font-style:normal;font-variant:normal;font-weight:normal;font-stretch:normal;font-size:18.1549px;font-family:'Cooper Black';-inkscape-font-specification:'Cooper Black, Normal';font-variant-ligatures:normal;font-variant-caps:normal;font-variant-numeric:normal;font-variant-east-asian:normal;stroke-width:0.453872;fill:#000000;"
         y="46.863064"
         x="79.07695"
         id="tspan837"
         sodipodi:role="line">SOFT</tspan></text>
    <path
       d="m 109.17955,28.628592 c -0.72041,0 -1.30018,6.292617 -1.30018,14.109215 v 0.12971 c 0,7.816598 0.57977,14.109215 1.30018,14.109215 h 25.74778 c 0.72041,0 1.30018,-6.292617 1.30018,-14.109215 v -0.12971 c 0,-7.816598 -0.57977,-14.109215 -1.30018,-14.109215 z m 13.06277,5.76399 a 4.2522319,4.2522319 0 0 1 4.25194,4.251936 4.2522319,4.2522319 0 0 1 -4.25194,4.252455 4.2522319,4.2522319 0 0 1 -4.25245,-4.252455 4.2522319,4.2522319 0 0 1 4.25245,-4.251936 z m 0.18914,1.039212 c -0.36646,0 -0.66146,0.400299 -0.66146,0.89762 0,0.497324 0.295,0.898136 0.66146,0.898136 0.36645,0 0.66145,-0.400812 0.66145,-0.898136 0,-0.497321 -0.295,-0.89762 -0.66145,-0.89762 z m 1.6061,1.795756 c -0.52349,0 -0.94465,0.505584 -0.94465,1.133782 0,0.628197 0.42116,1.133779 0.94465,1.133779 h 0.2837 c 0.5235,0 0.94465,-0.505582 0.94465,-1.133779 0,-0.628198 -0.42115,-1.133782 -0.94465,-1.133782 z m -9.16533,9.921875 h 14.55208 c 0.52351,0 0.94465,0.632238 0.94465,1.417484 v 6.425448 c 0,0.785247 -0.42114,1.417484 -0.94465,1.417484 h -14.55208 c -0.5235,0 -0.94517,-0.632237 -0.94517,-1.417484 v -6.425448 c 0,-0.785246 0.42167,-1.417484 0.94517,-1.417484 z m 9.5436,0.850596 c -0.5235,0 -0.94464,0.63224 -0.94464,1.417484 v 4.819343 c 0,0.785243 0.42114,1.416968 0.94464,1.416968 h 2.26808 c 0.5235,0 0.94464,-0.631725 0.94464,-1.416968 v -4.819343 c 0,-0.785244 -0.42114,-1.417484 -0.94464,-1.417484 z"
       style="fill:#000000;stroke-width:0.358354"
       id="rect843" />
  </g>
</svg>
